<?xml version="1.0" encoding="utf-8"?>
<!-- Generator: Adobe Illustrator 22.0.0, SVG Export Plug-In . SVG Version: 6.00 Build 0)  -->
<svg version="1.1" id="Layer_1" xmlns="http://www.w3.org/2000/svg" xmlns:xlink="http://www.w3.org/1999/xlink" x="0px" y="0px"
	 viewBox="0 0 368.6 221.5" style="enable-background:new 0 0 368.6 221.5;" xml:space="preserve">
<style type="text/css">
	.st0{fill:#B22234;}
	.st1{fill:#FFFFFF;}
	.st2{fill:#3C3B6E;}
</style>
<g>
	<g>
		<rect y="-1.3" class="st0" width="368.6" height="17"/>
		<rect y="205.8" class="st0" width="368.6" height="17"/>
		<rect y="187.7" class="st1" width="368.6" height="18.1"/>
		<rect y="15.7" class="st1" width="368.6" height="17.6"/>
		<rect y="33.3" class="st0" width="368.6" height="16.8"/>
		<rect y="172.2" class="st0" width="368.6" height="15.5"/>
		<rect y="153.8" class="st1" width="368.6" height="18.4"/>
		<rect y="50" class="st1" width="368.6" height="18.4"/>
		<rect y="136.3" class="st0" width="368.6" height="17.6"/>
		<rect y="68.4" class="st0" width="368.6" height="16.8"/>
		<rect y="85.2" class="st1" width="368.6" height="17.3"/>
		<rect y="118.7" class="st1" width="368.6" height="17.6"/>
		<rect y="102.5" class="st0" width="368.6" height="16.2"/>
	</g>
	<rect y="-1.3" class="st2" width="147.3" height="120"/>
	<g>
		<polygon class="st1" points="4.4,8 8.7,8 10.3,3.2 11.6,8 16,8 12.5,11.3 13.9,16.1 10.3,12.8 6.8,16.1 7.8,11.3 		"/>
		<polygon class="st1" points="29.8,8 34.1,8 35.7,3.2 37,8 41.4,8 37.9,11.3 39.2,16.1 35.7,12.8 32.2,16.1 33.2,11.3 		"/>
		<polygon class="st1" points="55.1,8 59.4,8 61,3.2 62.4,8 66.8,8 63.3,11.3 64.6,16.1 61,12.8 57.5,16.1 58.6,11.3 		"/>
		<polygon class="st1" points="80.5,8 84.8,8 86.4,3.2 87.7,8 92.1,8 88.6,11.3 90,16.1 86.4,12.8 82.9,16.1 83.9,11.3 		"/>
		<polygon class="st1" points="105.9,8 110.2,8 111.8,3.2 113.1,8 117.5,8 114,11.3 115.3,16.1 111.8,12.8 108.3,16.1 109.3,11.3 		
			"/>
		<polygon class="st1" points="131.2,8 135.5,8 137.1,3.2 138.5,8 142.9,8 139.4,11.3 140.7,16.1 137.1,12.8 133.6,16.1 134.7,11.3 
					"/>
		<polygon class="st1" points="4.4,32.3 8.7,32.3 10.3,27.4 11.6,32.3 16,32.3 12.5,35.5 13.9,40.4 10.3,37.1 6.8,40.4 7.8,35.5 		
			"/>
		<polygon class="st1" points="29.8,32.3 34.1,32.3 35.7,27.4 37,32.3 41.4,32.3 37.9,35.5 39.2,40.4 35.7,37.1 32.2,40.4 
			33.2,35.5 		"/>
		<polygon class="st1" points="55.1,32.3 59.4,32.3 61,27.4 62.4,32.3 66.8,32.3 63.3,35.5 64.6,40.4 61,37.1 57.5,40.4 58.6,35.5 
					"/>
		<polygon class="st1" points="80.5,32.3 84.8,32.3 86.4,27.4 87.7,32.3 92.1,32.3 88.6,35.5 90,40.4 86.4,37.1 82.9,40.4 
			83.9,35.5 		"/>
		<polygon class="st1" points="105.9,32.3 110.2,32.3 111.8,27.4 113.1,32.3 117.5,32.3 114,35.5 115.3,40.4 111.8,37.1 108.3,40.4 
			109.3,35.5 		"/>
		<polygon class="st1" points="131.2,32.3 135.5,32.3 137.1,27.4 138.5,32.3 142.9,32.3 139.4,35.5 140.7,40.4 137.1,37.1 
			133.6,40.4 134.7,35.5 		"/>
		<polygon class="st1" points="4.4,55.8 8.7,55.8 10.3,50.9 11.6,55.8 16,55.8 12.5,59 13.9,63.8 10.3,60.6 6.8,63.8 7.8,59 		"/>
		<polygon class="st1" points="29.8,55.8 34.1,55.8 35.7,50.9 37,55.8 41.4,55.8 37.9,59 39.2,63.8 35.7,60.6 32.2,63.8 33.2,59 		
			"/>
		<polygon class="st1" points="55.1,55.8 59.4,55.8 61,50.9 62.4,55.8 66.8,55.8 63.3,59 64.6,63.8 61,60.6 57.5,63.8 58.6,59 		"/>
		<polygon class="st1" points="80.5,55.8 84.8,55.8 86.4,50.9 87.7,55.8 92.1,55.8 88.6,59 90,63.8 86.4,60.6 82.9,63.8 83.9,59 		
			"/>
		<polygon class="st1" points="105.9,55.8 110.2,55.8 111.8,50.9 113.1,55.8 117.5,55.8 114,59 115.3,63.8 111.8,60.6 108.3,63.8 
			109.3,59 		"/>
		<polygon class="st1" points="131.2,55.8 135.5,55.8 137.1,50.9 138.5,55.8 142.9,55.8 139.4,59 140.7,63.8 137.1,60.6 133.6,63.8 
			134.7,59 		"/>
		<polygon class="st1" points="4.5,80.3 8.8,80.3 10.4,75.5 11.8,80.3 16.1,80.3 12.6,83.6 14,88.4 10.4,85.1 6.9,88.4 7.9,83.6 		
			"/>
		<polygon class="st1" points="29.9,80.3 34.2,80.3 35.8,75.5 37.1,80.3 41.5,80.3 38,83.6 39.4,88.4 35.8,85.1 32.3,88.4 
			33.3,83.6 		"/>
		<polygon class="st1" points="55.2,80.3 59.5,80.3 61.1,75.5 62.5,80.3 66.9,80.3 63.4,83.6 64.7,88.4 61.1,85.1 57.6,88.4 
			58.7,83.6 		"/>
		<polygon class="st1" points="80.6,80.3 84.9,80.3 86.5,75.5 87.9,80.3 92.2,80.3 88.7,83.6 90.1,88.4 86.5,85.1 83,88.4 84,83.6 
					"/>
		<polygon class="st1" points="106,80.3 110.3,80.3 111.9,75.5 113.2,80.3 117.6,80.3 114.1,83.6 115.5,88.4 111.9,85.1 108.4,88.4 
			109.4,83.6 		"/>
		<polygon class="st1" points="131.4,80.3 135.6,80.3 137.2,75.5 138.6,80.3 143,80.3 139.5,83.6 140.8,88.4 137.2,85.1 133.7,88.4 
			134.8,83.6 		"/>
		<polygon class="st1" points="4.5,104.1 8.8,104.1 10.4,99.2 11.8,104.1 16.1,104.1 12.6,107.3 14,112.1 10.4,108.9 6.9,112.1 
			7.9,107.3 		"/>
		<polygon class="st1" points="29.9,104.1 34.2,104.1 35.8,99.2 37.1,104.1 41.5,104.1 38,107.3 39.4,112.1 35.8,108.9 32.3,112.1 
			33.3,107.3 		"/>
		<polygon class="st1" points="55.2,104.1 59.5,104.1 61.1,99.2 62.5,104.1 66.9,104.1 63.4,107.3 64.7,112.1 61.1,108.9 
			57.6,112.1 58.7,107.3 		"/>
		<polygon class="st1" points="80.6,104.1 84.9,104.1 86.5,99.2 87.9,104.1 92.2,104.1 88.7,107.3 90.1,112.1 86.5,108.9 83,112.1 
			84,107.3 		"/>
		<polygon class="st1" points="106,104.1 110.3,104.1 111.9,99.2 113.2,104.1 117.6,104.1 114.1,107.3 115.5,112.1 111.9,108.9 
			108.4,112.1 109.4,107.3 		"/>
		<polygon class="st1" points="131.4,104.1 135.6,104.1 137.2,99.2 138.6,104.1 143,104.1 139.5,107.3 140.8,112.1 137.2,108.9 
			133.7,112.1 134.8,107.3 		"/>
		<polygon class="st1" points="17.1,91.8 21.4,91.8 23,86.9 24.3,91.8 28.7,91.8 25.2,95.1 26.5,99.9 23,96.6 19.5,99.9 20.5,95.1 
					"/>
		<polygon class="st1" points="42.4,91.8 46.7,91.8 48.3,86.9 49.7,91.8 54.1,91.8 50.6,95.1 51.9,99.9 48.3,96.6 44.8,99.9 
			45.9,95.1 		"/>
		<polygon class="st1" points="67.8,91.8 72.1,91.8 73.7,86.9 75.1,91.8 79.4,91.8 75.9,95.1 77.3,99.9 73.7,96.6 70.2,99.9 
			71.2,95.1 		"/>
		<polygon class="st1" points="93.2,91.8 97.5,91.8 99.1,86.9 100.4,91.8 104.8,91.8 101.3,95.1 102.6,99.9 99.1,96.6 95.6,99.9 
			96.6,95.1 		"/>
		<polygon class="st1" points="118.5,91.8 122.8,91.8 124.4,86.9 125.8,91.8 130.2,91.8 126.7,95.1 128,99.9 124.4,96.6 120.9,99.9 
			122,95.1 		"/>
		<polygon class="st1" points="17.1,68 21.4,68 23,63.2 24.3,68 28.7,68 25.2,71.3 26.5,76.1 23,72.9 19.5,76.1 20.5,71.3 		"/>
		<polygon class="st1" points="42.4,68 46.7,68 48.3,63.2 49.7,68 54.1,68 50.6,71.3 51.9,76.1 48.3,72.9 44.8,76.1 45.9,71.3 		"/>
		<polygon class="st1" points="67.8,68 72.1,68 73.7,63.2 75.1,68 79.4,68 75.9,71.3 77.3,76.1 73.7,72.9 70.2,76.1 71.2,71.3 		"/>
		<polygon class="st1" points="93.2,68 97.5,68 99.1,63.2 100.4,68 104.8,68 101.3,71.3 102.6,76.1 99.1,72.9 95.6,76.1 96.6,71.3 
					"/>
		<polygon class="st1" points="118.5,68 122.8,68 124.4,63.2 125.8,68 130.2,68 126.7,71.3 128,76.1 124.4,72.9 120.9,76.1 
			122,71.3 		"/>
		<polygon class="st1" points="17.3,44 21.6,44 23.2,39.2 24.6,44 29,44 25.5,47.3 26.8,52.1 23.2,48.9 19.7,52.1 20.8,47.3 		"/>
		<polygon class="st1" points="42.7,44 47,44 48.6,39.2 49.9,44 54.3,44 50.8,47.3 52.2,52.1 48.6,48.9 45.1,52.1 46.1,47.3 		"/>
		<polygon class="st1" points="68.1,44 72.4,44 74,39.2 75.3,44 79.7,44 76.2,47.3 77.5,52.1 74,48.9 70.5,52.1 71.5,47.3 		"/>
		<polygon class="st1" points="93.4,44 97.7,44 99.3,39.2 100.7,44 105.1,44 101.6,47.3 102.9,52.1 99.3,48.9 95.8,52.1 96.9,47.3 
					"/>
		<polygon class="st1" points="118.8,44 123.1,44 124.7,39.2 126.1,44 130.4,44 126.9,47.3 128.3,52.1 124.7,48.9 121.2,52.1 
			122.2,47.3 		"/>
		<polygon class="st1" points="17.3,20.3 21.6,20.3 23.2,15.5 24.6,20.3 29,20.3 25.5,23.5 26.8,28.4 23.2,25.1 19.7,28.4 
			20.8,23.5 		"/>
		<polygon class="st1" points="42.7,20.3 47,20.3 48.6,15.5 49.9,20.3 54.3,20.3 50.8,23.5 52.2,28.4 48.6,25.1 45.1,28.4 
			46.1,23.5 		"/>
		<polygon class="st1" points="68.1,20.3 72.4,20.3 74,15.5 75.3,20.3 79.7,20.3 76.2,23.5 77.5,28.4 74,25.1 70.5,28.4 71.5,23.5 
					"/>
		<polygon class="st1" points="93.4,20.3 97.7,20.3 99.3,15.5 100.7,20.3 105.1,20.3 101.6,23.5 102.9,28.4 99.3,25.1 95.8,28.4 
			96.9,23.5 		"/>
		<polygon class="st1" points="118.8,20.3 123.1,20.3 124.7,15.5 126.1,20.3 130.4,20.3 126.9,23.5 128.3,28.4 124.7,25.1 
			121.2,28.4 122.2,23.5 		"/>
	</g>
</g>
</svg>
